# xmcd
#
# Track frame offsets: 
#        150
#        26901
#        45966
#        58136
#        76445
#        105108
#        119113
#        149692
#        181086
#        206008
#        224998
#        263857
#        303076
#
# Disc length: 4577 seconds
#
# Revision: 2
# Processed by: cddbd v1.5.2PL0 Copyright (c) Steve Scherf et al.
# Submitted via: ExactAudioCopy v0.99pb5
#
DISCID=c211df0d
DTITLE=Jurgen Kerth - Ich liebe die eine
DYEAR=2006
DGENRE=Blues
TTITLE0=Frühlingsmelancholie
TTITLE1=Nacht unterwegs
TTITLE2=Mein Freund der Zigeuner
TTITLE3=Schwarze Perle
TTITLE4=Blues vom Blues
TTITLE5=Magic Games
TTITLE6=Blues von zwei falschen Freunden
TTITLE7=Amazonas_Tanz der Alligatoren
TTITLE8=Auf die alten Tage
TTITLE9=Barbara
TTITLE10=Gloriosa (Live)
TTITLE11=Ich liebe die eine (Live)
TTITLE12=Kerth`s Soul
EXTD=
EXTT0=
EXTT1=
EXTT2=
EXTT3=
EXTT4=
EXTT5=
EXTT6=
EXTT7=
EXTT8=
EXTT9=
EXTT10=
EXTT11=
EXTT12=
PLAYORDER=
